<svg xmlns="http://www.w3.org/2000/svg" viewBox="0 0 256 256" width="256" height="256">
  <defs>
    <linearGradient id="docklab-bg" x1="0" y1="0" x2="1" y2="1">
      <stop offset="0" stop-color="#38bdf8"/>
      <stop offset="1" stop-color="#4f46e5"/>
    </linearGradient>
  </defs>
  <rect x="20" y="20" width="216" height="216" rx="56" fill="url(#docklab-bg)"/>
  <rect x="62" y="62" width="132" height="132" rx="18" fill="none" stroke="#ffffff" stroke-opacity="0.42" stroke-width="6" stroke-dasharray="12 10"/>
  <line x1="128" y1="94" x2="80" y2="166" stroke="#ffffff" stroke-width="8" stroke-linecap="round" opacity="0.85"/>
  <line x1="128" y1="94" x2="176" y2="166" stroke="#ffffff" stroke-width="8" stroke-linecap="round" opacity="0.85"/>
  <line x1="80" y1="166" x2="176" y2="166" stroke="#ffffff" stroke-width="8" stroke-linecap="round" opacity="0.85"/>
  <circle cx="128" cy="94" r="24" fill="#ffffff"/>
  <text x="128" y="104" font-family="Arial, Helvetica, sans-serif" font-size="30" font-weight="700" fill="#4f46e5" text-anchor="middle">D</text>
  <circle cx="80" cy="166" r="14" fill="#ffffff"/>
  <circle cx="176" cy="166" r="14" fill="#ffffff"/>
  <circle cx="80" cy="166" r="5" fill="#38bdf8"/>
  <circle cx="176" cy="166" r="5" fill="#38bdf8"/>
  <rect x="56" y="56" width="12" height="12" rx="3" fill="#ffffff" opacity="0.8"/>
  <rect x="188" y="56" width="12" height="12" rx="3" fill="#ffffff" opacity="0.8"/>
  <rect x="56" y="188" width="12" height="12" rx="3" fill="#ffffff" opacity="0.8"/>
  <rect x="188" y="188" width="12" height="12" rx="3" fill="#ffffff" opacity="0.8"/>
</svg>
